<svg width="74" height="103" viewBox="0 0 74 103" fill="none" xmlns="http://www.w3.org/2000/svg">
<rect width="74" height="74" rx="8" fill="#F2F4F8"/>
<path d="M47.8193 29.3363C47.8193 29.3363 44.873 43.9154 25.7179 41.2989C25.7179 41.2989 26.0861 52.5143 31.9798 57C31.9798 57 51.503 52.1406 47.8193 29.3363Z" fill="#131313"/>
<path d="M40.8211 17C40.8211 21.9681 43.0311 31.5791 34.1909 38.6824C34.1909 38.6824 45.9785 37.5604 46.8773 27.0439C46.8773 27.0439 47.083 25.9726 44.873 21.8604C43.2087 18.7637 40.8211 17 40.8211 17Z" fill="#131313"/>
<g clip-path="url(#clip0_347_2331)">
<path d="M6.12239 102.665L0 90.3348H3.43112L7.59216 99.3664L11.9965 90.3348H15.0949L8.96759 102.665H6.12736H6.12239Z" fill="#E2E5EB"/>
<path d="M13.6003 102.665L19.7177 90.3348H22.558L28.6853 102.665H25.5273L21.1428 93.5836L16.7534 102.665H13.5953H13.6003Z" fill="#E2E5EB"/>
<path d="M30.9645 90.3348H38.3977C39.2816 90.3348 40.0413 90.5148 40.6918 90.8746C41.3323 91.2295 41.8289 91.7243 42.1864 92.3541C42.5389 92.9838 42.7127 93.6985 42.7127 94.5032C42.7127 95.3529 42.5091 96.1026 42.102 96.7574C41.6849 97.4121 41.1734 97.8819 40.5577 98.1668L43.3086 102.665H39.9221L37.5487 98.6566H33.9239V102.665H30.9694V96.0177H38.4027C38.7999 96.0177 39.1277 95.8877 39.3809 95.6228C39.6292 95.3579 39.7583 94.9831 39.7583 94.4982C39.7583 94.0134 39.6242 93.6336 39.3511 93.3687C39.073 93.1038 38.7553 92.9738 38.4027 92.9738H30.9694V90.3348H30.9645Z" fill="#E2E5EB"/>
<path d="M48.6961 102.155C47.5739 101.596 46.6702 100.821 45.9949 99.8412C45.3246 98.8566 44.9869 97.747 44.9869 96.5025C44.9869 95.258 45.3246 94.1434 45.9949 93.1638C46.6653 92.1792 47.569 91.4095 48.6961 90.8497C49.8282 90.2799 51.0696 90 52.4351 90C53.8006 90 55.0519 90.2799 56.184 90.8497C57.3062 91.4095 58.2099 92.1792 58.8852 93.1638C59.5556 94.1434 59.8932 95.253 59.8932 96.5025C59.8932 97.752 59.5556 98.8566 58.8852 99.8412C58.2149 100.821 57.3112 101.596 56.184 102.155C55.0519 102.715 53.8105 103 52.4351 103C51.0597 103 49.8282 102.72 48.6961 102.155ZM54.6596 99.7213C55.3399 99.4314 55.8861 99.0165 56.3082 98.4767C56.7203 97.9319 56.9338 97.2722 56.9338 96.5025C56.9338 95.7328 56.7203 95.0681 56.3082 94.5283C55.8861 93.9835 55.3349 93.5636 54.6596 93.2787C53.9744 92.9889 53.2345 92.8439 52.4351 92.8439C51.6357 92.8439 50.9057 92.9889 50.2205 93.2837C49.5353 93.5736 48.9841 93.9885 48.567 94.5333C48.1549 95.078 47.9414 95.7328 47.9414 96.4975C47.9414 97.2622 48.1549 97.907 48.567 98.4567C48.9792 99.0065 49.5303 99.4214 50.2205 99.7163C50.9057 100.006 51.6456 100.151 52.4351 100.151C53.2246 100.151 53.9744 100.006 54.6596 99.7163V99.7213Z" fill="#E2E5EB"/>
<path d="M65.37 102.665C64.5954 102.445 63.9052 102.165 63.3193 101.805C62.7235 101.451 62.217 101.026 61.7949 100.531L63.652 98.4767C63.9251 98.7816 64.2528 99.0615 64.6401 99.3364C65.0274 99.6113 65.4942 99.8462 66.0404 100.051C66.5816 100.256 67.2023 100.361 67.8875 100.361C68.538 100.361 69.114 100.261 69.6304 100.066C70.1369 99.8762 70.5341 99.6563 70.8122 99.3964C71.0902 99.1365 71.2342 98.9166 71.2342 98.7267C71.2342 98.5067 71.1151 98.3418 70.8817 98.2268C70.6483 98.1119 70.3107 98.0319 69.8638 97.9769C69.4169 97.922 68.9203 97.877 68.3642 97.847C67.8279 97.817 67.2768 97.777 66.7157 97.717C66.1496 97.6571 65.5985 97.5571 65.0622 97.4222C64.5358 97.2872 64.0542 97.0823 63.6123 96.8074C63.1704 96.5325 62.8277 96.1676 62.5695 95.7078C62.3064 95.253 62.1773 94.6732 62.1773 93.9785C62.1773 93.2837 62.4106 92.634 62.8774 92.0292C63.3441 91.4245 63.9996 90.9346 64.8536 90.5648C65.7127 90.1949 66.7256 90.005 67.8975 90.005C68.7962 90.005 69.6006 90.105 70.3007 90.2999C71.0009 90.5048 71.6215 90.7647 72.1429 91.0896C72.6692 91.4095 73.1459 91.8043 73.5829 92.2641L71.701 94.1634C71.3534 93.8435 71.0158 93.5886 70.6831 93.3737C70.3603 93.1638 69.9829 92.9889 69.546 92.8589C69.109 92.724 68.5827 92.664 67.9471 92.664C67.1477 92.664 66.4326 92.8089 65.812 93.1038C65.1863 93.3987 64.8785 93.6936 64.8785 93.9835C64.8785 94.2434 65.0125 94.4483 65.2757 94.5882C65.5488 94.7332 65.9311 94.8481 66.4227 94.9231C66.9143 94.9981 67.4605 95.0581 68.0663 95.113C68.7316 95.173 69.4069 95.248 70.0872 95.3579C70.7724 95.4629 71.408 95.6328 71.9939 95.8678C72.5799 96.1027 73.0665 96.4525 73.4439 96.9074C73.8212 97.3622 74 97.9719 74 98.7366C74 99.5014 73.7567 100.186 73.275 100.841C72.7835 101.496 72.0933 102.015 71.1796 102.42C70.266 102.815 69.1736 103.01 67.9024 103.01C66.9888 103.01 66.1446 102.895 65.37 102.675V102.665Z" fill="#E2E5EB"/>
</g>
<defs>
<clipPath id="clip0_347_2331">
<rect width="74" height="13" fill="white" transform="translate(0 90)"/>
</clipPath>
</defs>
</svg>
